<svg xmlns="http://www.w3.org/2000/svg" width="26" height="28" viewBox="0 0 26 28">
    <path fill="#434343" fill-rule="evenodd" d="M15.857 14A2.863 2.863 0 0 0 13 11.143 2.863 2.863 0 0 0 10.143 14 2.863 2.863 0 0 0 13 16.857 2.863 2.863 0 0 0 15.857 14zm1.54 0A4.392 4.392 0 0 1 13 18.397 4.392 4.392 0 0 1 8.603 14 4.392 4.392 0 0 1 13 9.603 4.392 4.392 0 0 1 17.397 14zm1.206-4.576c0 .57-.458 1.027-1.027 1.027-.57 0-1.027-.458-1.027-1.027 0-.57.458-1.027 1.027-1.027.57 0 1.027.458 1.027 1.027zM13 6.97c-1.25 0-3.929-.1-5.056.346a2.74 2.74 0 0 0-.982.647 2.74 2.74 0 0 0-.647.982c-.447 1.127-.346 3.806-.346 5.056s-.1 3.929.346 5.056c.156.39.346.68.647.982.301.301.592.491.982.647 1.127.447 3.806.346 5.056.346s3.929.1 5.056-.346c.39-.156.68-.346.982-.647a2.74 2.74 0 0 0 .647-.982c.447-1.127.346-3.806.346-5.056s.1-3.929-.346-5.056a2.74 2.74 0 0 0-.647-.982 2.74 2.74 0 0 0-.982-.647c-1.127-.447-3.806-.346-5.056-.346zM21.571 14c0 1.183.012 2.355-.055 3.538-.067 1.373-.38 2.59-1.384 3.594-1.005 1.004-2.221 1.317-3.594 1.384-1.183.067-2.355.055-3.538.055-1.183 0-2.355.012-3.538-.055-1.373-.067-2.59-.38-3.594-1.384-1.004-1.005-1.317-2.221-1.384-3.594-.067-1.183-.055-2.355-.055-3.538 0-1.183-.012-2.355.055-3.538.067-1.373.38-2.59 1.384-3.594C6.873 5.864 8.09 5.551 9.462 5.484c1.183-.067 2.355-.055 3.538-.055 1.183 0 2.355-.012 3.538.055 1.373.067 2.59.38 3.594 1.384 1.004 1.005 1.317 2.221 1.384 3.594.067 1.183.055 2.355.055 3.538z"/>
</svg>
