<svg xmlns="http://www.w3.org/2000/svg" width="150" height="15" viewBox="0 0 150 15">
    <g fill="#0063BA" fill-rule="nonzero">
        <path d="M19.599 7.657c.868-1.977-.323-2.727-3.138-2.727h-4.718c-1.026 0-1.243-.09-1.013-.6l.336-.764c.21-.491.513-.586 1.54-.593h6.177a5.61 5.61 0 0 1 2.5.45l.612-2.728H9.572C7.383.572 5.35 1.867 4.467 3.948l-1.316 3.04c-1.026 2.264-.29 2.94 2.349 2.94h5.421c1.04 0 1.204.102.987.592l-.415.935c-.217.51-.48.593-1.513.593H3.56a4.66 4.66 0 0 1-2.382-.505l-.665 2.775H12.5c3.19 0 4.684-1.2 5.625-3.334l1.474-3.327zM51.763 8.393a9.224 9.224 0 0 1 2.842.362l1.316-2.966a13.732 13.732 0 0 1-3.158.347h-4.737l1.421-3.184h5.402a9.084 9.084 0 0 1 2.868.362L58.33.682H43.243c.1.538.08 1.043-.486 2.332l-3.948 8.931a7.403 7.403 0 0 1-.973 1.691c-.361-.683-.66-1.4-.895-2.14l-2.119-6.819 4.402-2.632A13.389 13.389 0 0 1 42.105.682h-6.079a3.8 3.8 0 0 1-.158.511c-.204.45-.526.784-1.579 1.473l-6.368 4.09 1.684-3.715c.335-.9.866-1.708 1.553-2.36h-7.744c.106.54.093 1.037-.48 2.333l-3.947 8.931a6.402 6.402 0 0 1-1.566 2.373h7.73c-.085-.552-.079-1.057.48-2.345l.908-2.046 2.191-1.363 1.316 5.768h22.54l1.756-2.618c-1.03.25-2.086.37-3.145.361h-5.802l1.618-3.655 4.75-.027zM71.664 11.005c-1.56.339-3.15.508-4.743.504H63.81c-.658 0-.881-.19-.625-.859.257-.668 2.823-6.389 2.823-6.389.219-.497.71-.803 1.236-.77h4.882c.785.009 1.563.152 2.303.423l.776-3.13h-.04V.702H64.73c-2.848-.02-4.862 1.064-6.177 4.003l-2.474 5.604c-1.316 2.918-.178 3.996 2.632 3.996h10.736l2.217-3.3zM90.658 11.952l3.947-8.925A6.282 6.282 0 0 1 96.171.682h-7.73c.092.532.085 1.036-.487 2.325l-1.362 3.13h-4.967l1.382-3.11c.34-.9.881-1.703 1.579-2.345h-7.737c.092.532.085 1.036-.5 2.325L72.4 11.939a6.422 6.422 0 0 1-1.572 2.38h7.743c-.092-.54-.085-1.05.494-2.34l1.579-3.572h4.947L84.02 11.98a6.381 6.381 0 0 1-1.58 2.338h7.731c-.092-.566-.085-1.07.487-2.366zM104.605 12.034h-5.763l1.605-3.654h4.737a9.211 9.211 0 0 1 2.836.36l1.316-2.965a13.053 13.053 0 0 1-3.145.355h-4.757l1.415-3.185h5.414a9.122 9.122 0 0 1 2.869.362l.611-2.625H96.664c.093.538.08 1.036-.493 2.332l-3.947 8.925a6.608 6.608 0 0 1-1.58 2.345h15.343l1.756-2.625a12.165 12.165 0 0 1-3.138.375zM126.072 8.38c1.454-.082 2.757-.191 3.639-2.182l1.098-2.51c1.007-2.277-.145-3.006-3.177-3.006h-14.336c.257.545.25 1.043-.329 2.338l-3.947 8.925a6.184 6.184 0 0 1-1.58 2.346h7.731c-.085-.546-.079-1.05.487-2.339l1.572-3.572h2.046l.546 5.91h7.435a5.43 5.43 0 0 1-.52-2.085l-.665-3.825zm-1.914-4.678l-.724 1.664c-.29.682-.579.764-1.44.764h-3.75l1.42-3.185h3.737c.856 0 1.06.096.757.757zM138.401 3.532c.224-.491.513-.593 1.553-.593h6.178a5.775 5.775 0 0 1 2.493.45l.862-2.728h-12.58c-2.181-.124-4.21 1.162-5.098 3.232l-1.316 3.041c-1.02 2.27-.282 2.946 2.356 2.946h5.42c1.027 0 1.211.102.981.6l-.434.96c-.217.505-.474.587-1.527.587h-6.368a4.769 4.769 0 0 1-2.388-.511l-.658 2.768h11.974c3.19 0 4.69-1.207 5.638-3.334l1.467-3.32c.868-1.985-.316-2.728-3.151-2.728h-4.71c-1.04 0-1.25-.082-1.02-.593l.328-.777zM145.75 12.273c.545 0 .987.458.987 1.022 0 .565-.442 1.023-.987 1.023-.545 0-.987-.458-.987-1.023 0-.564.442-1.022.987-1.022zm0 .197a.751.751 0 0 0-.536.249.807.807 0 0 0-.207.57.787.787 0 0 0 .351.733.728.728 0 0 0 .79 0 .787.787 0 0 0 .352-.733.814.814 0 0 0-.211-.57.758.758 0 0 0-.539-.249zm-.171 1.405h-.23v-1.139c.115-.021.231-.033.348-.034a.64.64 0 0 1 .375.089c.07.06.107.152.1.245a.277.277 0 0 1-.211.266c.098 0 .157.11.177.273a.801.801 0 0 0 .06.28h-.244a1.096 1.096 0 0 1-.066-.294c0-.122-.085-.17-.204-.17h-.105v.484zm0-.648h.112c.131 0 .237-.047.237-.163s-.066-.164-.217-.164h-.132v.327z"/>
    </g>
</svg>
