<svg xmlns="http://www.w3.org/2000/svg" width="26" height="28" viewBox="0 0 26 28">
    <path fill="#434343" fill-rule="evenodd" d="M21.571 14A8.574 8.574 0 0 1 13 22.571a8.387 8.387 0 0 1-2.433-.357c.324-.513.692-1.172.87-1.83 0 0 .1-.38.603-2.355.29.57 1.16 1.071 2.087 1.071 2.757 0 4.632-2.51 4.632-5.881 0-2.534-2.154-4.911-5.435-4.911-4.063 0-6.116 2.924-6.116 5.357 0 1.473.558 2.79 1.752 3.281.19.079.368 0 .424-.223.045-.145.134-.524.178-.68.056-.224.034-.29-.122-.48-.346-.413-.57-.938-.57-1.686 0-2.165 1.619-4.107 4.22-4.107 2.298 0 3.57 1.406 3.57 3.292 0 2.467-1.093 4.554-2.722 4.554-.893 0-1.563-.737-1.35-1.652.256-1.082.758-2.254.758-3.035 0-.704-.38-1.295-1.16-1.295-.916 0-1.653.949-1.653 2.22 0 0 0 .816.28 1.363-.938 3.973-1.105 4.665-1.105 4.665-.157.647-.168 1.372-.146 1.975A8.574 8.574 0 0 1 13 5.428 8.574 8.574 0 0 1 21.571 14z"/>
</svg>
