<svg xmlns="http://www.w3.org/2000/svg" width="26" height="28" viewBox="0 0 26 28">
    <path fill="#434343" fill-rule="evenodd" d="M11.238 16.21l4.61-2.381-4.61-2.41v4.79zM13 8c3.59 0 5.971.171 5.971.171.334.039 1.067.039 1.715.724 0 0 .524.515.676 1.695.18 1.381.172 2.762.172 2.762v1.296s.009 1.38-.172 2.762c-.152 1.171-.676 1.695-.676 1.695-.648.676-1.381.676-1.715.714 0 0-2.38.181-5.971.181-4.438-.038-5.8-.171-5.8-.171-.381-.067-1.238-.048-1.886-.724 0 0-.524-.524-.676-1.695-.18-1.381-.172-2.762-.172-2.762v-1.296s-.009-1.38.172-2.762c.152-1.18.676-1.695.676-1.695.648-.685 1.381-.685 1.715-.724 0 0 2.38-.171 5.971-.171z"/>
</svg>
