<svg xmlns="http://www.w3.org/2000/svg" width="26" height="28" viewBox="0 0 26 28">
    <path fill="#434343" fill-rule="evenodd" d="M21.795 8.554a7.75 7.75 0 0 1-1.808 1.863c.01.157.01.313.01.47 0 4.765-3.626 10.256-10.256 10.256-2.042 0-3.94-.592-5.536-1.618.29.033.57.044.87.044a7.22 7.22 0 0 0 4.476-1.54 3.611 3.611 0 0 1-3.37-2.5c.223.034.446.056.68.056.324 0 .648-.045.95-.123a3.605 3.605 0 0 1-2.891-3.538v-.045a3.63 3.63 0 0 0 1.63.458 3.602 3.602 0 0 1-1.608-3.002c0-.67.179-1.284.491-1.82a10.247 10.247 0 0 0 7.433 3.773 4.069 4.069 0 0 1-.09-.826 3.603 3.603 0 0 1 3.606-3.605c1.038 0 1.975.435 2.634 1.139a7.097 7.097 0 0 0 2.288-.871 3.595 3.595 0 0 1-1.585 1.987 7.227 7.227 0 0 0 2.076-.558z"/>
</svg>
